<svg width="31" height="31" viewBox="0 0 31 31" fill="none" xmlns="http://www.w3.org/2000/svg">
<path d="M3.63994 10.3752L3.65105 13.1431C3.6529 13.3742 3.75659 13.5476 3.96211 13.6631L15.4072 20.0765C15.4857 20.1209 15.5748 20.1444 15.6655 20.1444C15.7563 20.1444 15.8454 20.1209 15.9238 20.0765L30.3601 11.946C30.3914 11.9283 30.427 11.9189 30.4632 11.9187C30.4994 11.9185 30.5349 11.9275 30.5662 11.9448C30.5975 11.9621 30.6234 11.9871 30.6414 12.0173C30.6593 12.0475 30.6686 12.0818 30.6684 12.1167C30.6758 15.0651 30.6711 18.0488 30.6545 21.0677C30.6526 21.631 30.3082 22.1059 29.6213 22.4923C25.2388 24.9713 20.8526 27.4431 16.4626 29.9077C15.8294 30.2625 15.1517 30.0269 14.4935 29.664C7.96138 26.0529 3.60106 23.6244 1.41257 22.3785C0.432192 21.8206 0.632155 19.9004 0.707142 18.9119C0.709593 18.8751 0.721641 18.8395 0.742144 18.8085C0.762646 18.7775 0.790925 18.7521 0.824301 18.7347C0.857676 18.7174 0.895044 18.7086 0.932864 18.7093C0.970683 18.71 1.0077 18.72 1.04041 18.7385L15.3489 26.7823C15.4461 26.8367 15.5562 26.8653 15.6683 26.8653C15.7804 26.8653 15.8905 26.8367 15.9877 26.7823L27.3134 20.3988C27.397 20.352 27.4664 20.2843 27.5147 20.2025C27.563 20.1207 27.5884 20.0277 27.5884 19.9329L27.5995 17.2517C27.5995 17.0368 27.5032 16.9835 27.3106 17.0919L16.0488 23.424C15.7803 23.5756 15.5119 23.5756 15.2434 23.424L0.987646 15.4208C0.888898 15.3649 0.806921 15.2847 0.749902 15.1882C0.692882 15.0918 0.662816 14.9824 0.662705 14.871C0.670112 13.3562 0.673815 11.8151 0.673815 10.2479C0.671038 8.98584 0.94321 8.22479 2.04023 7.62084C6.19874 5.32959 10.3452 3.01577 14.4796 0.679378C15.8044 -0.0708306 17.1042 0.782295 18.2401 1.47563C18.4215 1.58757 18.4456 1.72479 18.3123 1.88729C18.2419 1.97035 18.1188 2.06153 17.9429 2.16084C14.3454 4.18667 10.7507 6.21521 7.15875 8.24646C7.05136 8.30605 6.96526 8.37285 6.90046 8.44688C6.89123 8.4572 6.88448 8.46939 6.8807 8.48258C6.87692 8.49576 6.8762 8.5096 6.87859 8.5231C6.88099 8.53659 6.88643 8.54939 6.89454 8.56056C6.90265 8.57174 6.91321 8.58102 6.92546 8.58771L9.5111 10.0313C9.56267 10.06 9.62088 10.0752 9.67987 10.0752C9.73885 10.0752 9.79655 10.06 9.84715 10.0313L21.2395 3.61521C21.3637 3.54507 21.5047 3.50792 21.6484 3.50744C21.7922 3.50697 21.9336 3.54319 22.0588 3.6125C24.4121 4.91611 26.7959 6.26306 29.2103 7.65334C29.4899 7.81584 29.7898 8.04695 30.1101 8.34667C30.1453 8.37912 30.1722 8.41919 30.1885 8.46368C30.2049 8.50817 30.2103 8.55585 30.2044 8.60293C30.1985 8.65001 30.1813 8.69518 30.1544 8.73486C30.1274 8.77454 30.0913 8.80761 30.049 8.83146L15.8238 16.8292C15.7668 16.862 15.7015 16.8792 15.635 16.8787C15.5685 16.8782 15.5032 16.8602 15.4461 16.8265L12.9521 15.3694C12.7559 15.2538 12.7568 15.1392 12.9549 15.0254C16.7672 12.8768 20.5582 10.7291 24.3278 8.5823C24.4038 8.53896 24.4463 8.50646 24.4556 8.4848C24.4721 8.4478 24.4704 8.40435 24.4508 8.36316C24.4312 8.32197 24.3953 8.28609 24.3501 8.26271L21.8644 6.94104C21.7956 6.90462 21.7186 6.88598 21.6408 6.88693C21.5629 6.88788 21.4869 6.90838 21.42 6.94646L9.9138 13.4167C9.83683 13.4603 9.7493 13.4833 9.66006 13.4833C9.57081 13.4833 9.48302 13.4603 9.40556 13.4167L3.83713 10.2642C3.81719 10.2526 3.79446 10.2465 3.77127 10.2463C3.74808 10.2462 3.72527 10.2521 3.70519 10.2634C3.68511 10.2747 3.66848 10.291 3.65701 10.3107C3.64554 10.3303 3.63965 10.3526 3.63994 10.3752Z" fill="#1C4532"/>
</svg>
